:FULLY-SPECIFIED
:FORCE-ALL-JOINTS-BE-3DOF
:DEGREES
3160
root 0.977263 16.9339 -33.3555 1086.05 5.09559 -3.82446
lfemur -18.4859 -2.50584 -8.24487
ltibia 35.162 0 0
lfoot -16.3519 7.81801 0
ltoes -40.6228 0 0
rfemur -19.2652 -0.130236 18.4942
rtibia 38.759 0 0
rfoot -12.0772 -20.995 0
rtoes -16.3874 0 0
lowerback 5.72052 1.54298 -0.549648
upperback -4.12622 2.15304 1.85264
thorax -7.63347 1.14391 1.98976
lowerneck -5.49663 -5.13538 -7.87047
upperneck 9.55372 -6.78698 5.9826
head 4.21851 -3.33455 2.71803
lclavicle 1.88011e-16 -3.13332e-15 0
lhumerus -33.4319 -17.8744 94.6288
lradius 50.5964 0 0
lwrist -9.28734 0 0
lhand -34.1535 389.345 0
lfingers 7.12502 0 0
lthumb -7.32774 -660.802 0
rclavicle 1.88011e-16 -3.13332e-15 0
rhumerus -35.5488 13.4652 -81.268
rradius 49.2869 0 0
rwrist 2.05059 0 0
rhand -29.1842 -394.162 0
rfingers 7.12502 0 0
rthumb -2.52957 295.875 0
3161
root 0.992457 16.9401 -33.3493 1086.04 4.99538 -3.87937
lfemur -18.3706 -2.53892 -8.25274
ltibia 35.0754 0 0
lfoot -16.32 7.94579 0
ltoes -40.5833 0 0
rfemur -19.1469 -0.0695171 18.4941
rtibia 38.5568 0 0
rfoot -12.0129 -20.9383 0
rtoes -16.3773 0 0
lowerback 5.66908 1.55807 -0.565877
upperback -4.15957 2.17199 1.85278
thorax -7.64079 1.15439 1.99742
lowerneck -5.56604 -5.12536 -7.85471
upperneck 9.7191 -6.77537 5.98073
head 4.27508 -3.32753 2.70717
lclavicle -2.22187e-16 -3.46611e-15 0
lhumerus -33.4351 -17.4778 94.4789
lradius 49.8883 0 0
lwrist -9.54261 0 0
lhand -34.2015 389.294 0
lfingers 7.12502 0 0
lthumb -7.37408 -660.854 0
rclavicle -2.22187e-16 -3.46611e-15 0
rhumerus -35.5515 12.994 -81.186
rradius 48.306 0 0
rwrist 2.35137 0 0
rhand -29.1162 -394.178 0
rfingers 7.12502 0 0
rthumb -2.46394 295.858 0
3162
root 1.0064 16.9459 -33.3434 1086.04 4.90138 -3.92958
lfemur -18.2642 -2.56817 -8.26034
ltibia 34.9947 0 0
lfoot -16.2904 8.06345 0
ltoes -40.5449 0 0
rfemur -19.0393 -0.0131103 18.4939
rtibia 38.3705 0 0
rfoot -11.954 -20.8855 0
rtoes -16.3666 0 0
lowerback 5.62147 1.57224 -0.580885
upperback -4.1908 2.18983 1.85304
thorax -7.64797 1.16424 2.00461
lowerneck -5.62939 -5.11517 -7.83999
upperneck 9.87128 -6.76344 5.97872
head 4.32709 -3.32046 2.69735
lclavicle -7.03352e-16 -3.75678e-15 0
lhumerus -33.4327 -17.1109 94.341
lradius 49.2229 0 0
lwrist -9.78277 0 0
lhand -34.2448 389.251 0
lfingers 7.12502 0 0
lthumb -7.41588 -660.899 0
rclavicle -7.03352e-16 -3.75678e-15 0
rhumerus -35.5524 12.5529 -81.1082
rradius 47.3938 0 0
rwrist 2.62522 0 0
rhand -29.0527 -394.188 0
rfingers 7.12502 0 0
rthumb -2.40255 295.848 0
3163
root 1.01913 16.9511 -33.338 1086.03 4.81328 -3.9753
lfemur -18.1663 -2.59372 -8.26769
ltibia 34.9196 0 0
lfoot -16.2631 8.17146 0
ltoes -40.5077 0 0
rfemur -18.9417 0.039146 18.4935
rtibia 38.1994 0 0
rfoot -11.9003 -20.8365 0
rtoes -16.3554 0 0
lowerback 5.57754 1.58552 -0.594719
upperback -4.21997 2.20659 1.85341
thorax -7.655 1.1735 2.01133
lowerneck -5.68695 -5.10483 -7.82625
upperneck 10.0109 -6.7512 5.97659
head 4.37473 -3.31334 2.68852
lclavicle -1.24957e-15 -4.00678e-15 0
lhumerus -33.4249 -16.7722 94.2142
lradius 48.5983 0 0
lwrist -10.0086 0 0
lhand -34.2836 389.215 0
lfingers 7.12502 0 0
lthumb -7.45333 -660.936 0
rclavicle -1.24957e-15 -4.00678e-15 0
rhumerus -35.5516 12.1407 -81.0345
rradius 46.5475 0 0
rwrist 2.8732 0 0
rhand -28.993 -394.192 0
rfingers 7.12502 0 0
rthumb -2.3449 295.842 0
3164
root 1.03072 16.956 -33.333 1086.03 4.73077 -4.01671
lfemur -18.0765 -2.61573 -8.27482
ltibia 34.8498 0 0
lfoot -16.238 8.27028 0
ltoes -40.4716 0 0
rfemur -18.8538 0.0874133 18.493
rtibia 38.0429 0 0
rfoot -11.8514 -20.7909 0
rtoes -16.3437 0 0
lowerback 5.53717 1.59796 -0.607427
upperback -4.24719 2.22234 1.85387
thorax -7.66192 1.18218 2.01762
lowerneck -5.73897 -5.09434 -7.81344
upperneck 10.1384 -6.73867 5.97435
head 4.4182 -3.3062 2.68065
lclavicle -1.85492e-15 -4.21752e-15 0
lhumerus -33.4118 -16.4602 94.0982
lradius 48.0123 0 0
lwrist -10.221 0 0
lhand -34.318 389.187 0
lfingers 7.12502 0 0
lthumb -7.48658 -660.965 0
rclavicle -1.85492e-15 -4.21752e-15 0
rhumerus -35.5492 11.7563 -80.9647
rradius 45.7643 0 0
rwrist 3.09636 0 0
rhand -28.9367 -394.192 0
rfingers 7.12502 0 0
rthumb -2.2905 295.842 0
3165
root 1.0412 16.9604 -33.3284 1086.03 4.65355 -4.05404
lfemur -17.9943 -2.63432 -8.28172
ltibia 34.7853 0 0
lfoot -16.215 8.36038 0
ltoes -40.4366 0 0
rfemur -18.7751 0.131853 18.4924
rtibia 37.9004 0 0
rfoot -11.8072 -20.7488 0
rtoes -16.3317 0 0
lowerback 5.50021 1.60959 -0.619055
upperback -4.27252 2.23712 1.85444
thorax -7.66874 1.19032 2.02348
lowerneck -5.7857 -5.08372 -7.80152
upperneck 10.2545 -6.72588 5.97201
head 4.45771 -3.29901 2.67368
lclavicle -2.51349e-15 -4.39042e-15 0
lhumerus -33.3938 -16.1736 93.9923
lradius 47.4627 0 0
lwrist -10.4207 0 0
lhand -34.3483 389.166 0
lfingers 7.12502 0 0
lthumb -7.51583 -660.987 0
rclavicle -2.51349e-15 -4.39042e-15 0
rhumerus -35.5453 11.3985 -80.8986
rradius 45.0411 0 0
rwrist 3.29575 0 0
rhand -28.8832 -394.187 0
rfingers 7.12502 0 0
rthumb -2.23886 295.846 0
3166
root 1.05065 16.9644 -33.3241 1086.03 4.5813 -4.08746
lfemur -17.9194 -2.64965 -8.28843
ltibia 34.7257 0 0
lfoot -16.1941 8.44224 0
ltoes -40.4025 0 0
rfemur -18.7052 0.172627 18.4916
rtibia 37.7713 0 0
rfoot -11.7675 -20.7098 0
rtoes -16.3194 0 0
lowerback 5.46653 1.62047 -0.629651
upperback -4.29606 2.25098 1.8551
thorax -7.67548 1.19795 2.02893
lowerneck -5.8274 -5.07296 -7.79044
upperneck 10.3597 -6.71284 5.96959
head 4.49346 -3.2918 2.66758
lclavicle -3.21937e-15 -4.52692e-15 0
lhumerus -33.3709 -15.911 93.8958
lradius 46.9476 0 0
lwrist -10.6086 0 0
lhand -34.3746 389.151 0
lfingers 7.12502 0 0
lthumb -7.54123 -661.002 0
rclavicle -3.21937e-15 -4.52692e-15 0
rhumerus -35.5399 11.0659 -80.8363
rradius 44.3753 0 0
rwrist 3.47244 0 0
rhand -28.8321 -394.177 0
rfingers 7.12502 0 0
rthumb -2.18949 295.854 0
3167
root 1.0591 16.9681 -33.3201 1086.03 4.51371 -4.11719
lfemur -17.8513 -2.66185 -8.29495
ltibia 34.671 0 0
lfoot -16.1752 8.51632 0
ltoes -40.3694 0 0
rfemur -18.6435 0.209896 18.4907
rtibia 37.6549 0 0
rfoot -11.7322 -20.6738 0
rtoes -16.3069 0 0
lowerback 5.436 1.63063 -0.639261
upperback -4.31789 2.26399 1.85584
thorax -7.68215 1.2051 2.03398
lowerneck -5.86432 -5.06208 -7.78013
upperneck 10.4547 -6.69957 5.96709
head 4.52564 -3.28457 2.6623
lclavicle -3.96663e-15 -4.62844e-15 0
lhumerus -33.3433 -15.6708 93.8083
lradius 46.4647 0 0
lwrist -10.7854 0 0
lhand -34.3972 389.143 0
lfingers 7.12502 0 0
lthumb -7.56296 -661.011 0
rclavicle -3.96663e-15 -4.62844e-15 0
rhumerus -35.5331 10.7573 -80.7774
rradius 43.7638 0 0
rwrist 3.62746 0 0
rhand -28.7829 -394.163 0
rfingers 7.12502 0 0
rthumb -2.1419 295.867 0
